<?xml version="1.0"?>
<svg version="1.1" xmlns="http://www.w3.org/2000/svg" width="400" height="200" style="border: dashed 2px #aaa"><path fill="#f59314" d="M15,92.20703125q0-0.2734375,0.380859375-0.419921875t0.498046875-0.146484375l0.72265625-0.1171875q0.72265625-0.1171875,1.46484375-0.205078125t1.4453125-0.166015625q2.48046875-0.3125,4.9609375-0.615234375t5-0.302734375q0.1953125,0,0.537109375,0.01953125t0.68359375,0.107421875t0.5859375,0.244140625t0.244140625,0.4296875q0,0.1953125-0.185546875,0.341796875t-0.439453125,0.224609375t-0.517578125,0.09765625t-0.419921875,0.01953125l-0.341796875,0t-0.341796875-0.078125q-1.03515625,0-2.041015625,0.09765625t-2.041015625,0.17578125q0.2734375,0.3125,0.29296875,0.87890625t0.0390625,0.9765625q0,6.9140625,0.09765625,13.75t0.17578125,13.80859375l0,0.0390625q-0.64453125,0.56640625-1.103515625,0.72265625t-0.927734375,0.15625q-0.44921875,0-0.908203125-0.166015625t-1.103515625-0.712890625l0-0.0390625l0.15625-15.33203125q0-1.5234375-0.0390625-3.359375t-0.0390625-3.720703125t0.05859375-3.642578125t0.3125-3.06640625q-1.15234375,0.1171875-2.44140625,0.3515625q-1.11328125,0.1953125-2.12890625,0.1953125l-0.3515625,0q-0.078125,0-0.458984375,0.01953125t-0.78125-0.01953125t-0.72265625-0.15625t-0.322265625-0.390625z M34.3099609375,112.71484375q0-1.328125,0.361328125-2.55859375t1.083984375-2.197265625t1.806640625-1.54296875t2.509765625-0.576171875q0.87890625,0,1.943359375,0.263671875t2.001953125,0.78125t1.5625,1.318359375t0.625,1.8359375q0,0.48828125-0.166015625,0.7421875t-0.673828125,0.25390625l-0.21484375-0.0390625q0.56640625,1.5234375,0.9765625,3.125t0.80078125,3.203125q0.15625,0.3125,0.234375,0.556640625t0.078125,0.478515625q0,0.3125-0.17578125,0.517578125t-0.458984375,0.302734375t-0.5859375,0.13671875t-0.537109375,0.0390625q-0.83984375,0-1.259765625-0.29296875t-0.60546875-0.80078125t-0.224609375-1.142578125t-0.15625-1.279296875q-0.234375,0.76171875-0.615234375,1.484375t-0.8984375,1.298828125t-1.220703125,0.91796875t-1.58203125,0.341796875q-1.2890625,0-2.16796875-0.7421875t-1.416015625-1.826171875t-0.78125-2.314453125t-0.244140625-2.28515625z M37.0833984375,112.44140625q0,0.72265625,0.09765625,1.5234375t0.322265625,1.58203125t0.576171875,1.474609375t0.87890625,1.220703125q0.95703125-1.03515625,1.416015625-2.51953125t0.8203125-2.861328125t0.8203125-2.36328125t1.416015625-0.986328125q0.60546875,0,1.015625,0.21484375q-0.1953125-0.48828125-0.64453125-0.947265625t-1.005859375-0.83984375t-1.15234375-0.625t-1.123046875-0.244140625q-0.15625,0-0.361328125,0.048828125t-0.322265625,0.009765625q-0.80078125,0.234375-1.318359375,0.810546875t-0.83984375,1.357421875t-0.458984375,1.6015625t-0.13671875,1.54296875z M51.237109375,120.64453125l0.41015625-0.48828125q-0.078125-3.28125-0.17578125-6.54296875t-0.09765625-6.484375q0-4.00390625,0.478515625-7.744140625t0.947265625-7.666015625q0.0390625-0.234375,0.224609375-0.380859375t0.458984375-0.244140625t0.556640625-0.13671875t0.517578125-0.0390625q0.3125,0,0.78125,0.1171875t0.9375,0.68359375q0,0.1953125,0.029296875,0.341796875t0.029296875,0.341796875q0,1.484375-0.400390625,3.18359375t-0.537109375,3.26171875q-0.15625,1.9140625-0.21484375,3.7890625t-0.05859375,3.80859375l0.0390625,1.71875q0.390625-0.48828125,1.11328125-1.25t1.5625-1.474609375t1.6796875-1.220703125t1.5234375-0.5078125q1.03515625,0,1.435546875,0.5859375t0.400390625,1.54296875q0,0.87890625-0.380859375,1.8359375t-0.99609375,1.865234375t-1.396484375,1.630859375t-1.54296875,1.07421875q1.03515625,1.2890625,2.119140625,2.4609375t2.373046875,2.20703125l0,0.44921875q-0.0390625,0.1953125-0.244140625,0.29296875t-0.44921875,0.15625t-0.478515625,0.087890625t-0.390625,0.029296875q-0.95703125,0-1.845703125-0.56640625t-1.66015625-1.38671875t-1.455078125-1.73828125t-1.25-1.6015625q0.1171875,2.24609375,0.263671875,4.482421875t0.146484375,4.482421875q0,0.2734375-0.244140625,0.458984375t-0.56640625,0.283203125t-0.654296875,0.13671875t-0.546875,0.0390625q-1.15234375,0-1.630859375-0.419921875t-0.810546875-1.455078125z M55.241015625,111.4453125q0.48828125,0,1.162109375-0.419921875t1.396484375-1.044921875t1.34765625-1.318359375t1.005859375-1.318359375t0.380859375-1.005859375t-0.52734375-0.341796875q-0.1953125,0-0.80078125,0.56640625t-1.34765625,1.38671875t-1.484375,1.77734375t-1.1328125,1.71875z M66.2501953125,100.3125q0-0.2734375,0.5859375-0.46875t1.328125-0.322265625t1.435546875-0.185546875t0.947265625-0.09765625q0-0.52734375,0.0390625-1.064453125t0.21484375-0.95703125t0.556640625-0.673828125t1.064453125-0.25390625q0.56640625,0,0.859375,0.13671875t0.625,0.56640625q0.078125,0.234375,0.078125,0.44921875l0,0.654296875t-0.0390625,0.673828125q0.72265625-0.078125,1.435546875-0.185546875t1.435546875-0.107421875q0.52734375,0,0.72265625,0.01953125t0.390625,0.46875q0.15625,0.44921875-0.380859375,0.68359375t-1.2890625,0.3515625t-1.494140625,0.17578125t-0.8984375,0.05859375q-0.234375,3.359375-0.478515625,6.66015625t-0.244140625,6.69921875q0,1.5234375,0.09765625,3.14453125t0.546875,3.06640625q0.1171875,0.44921875,0.390625,0.83984375t0.2734375,0.83984375q0,0.2734375-0.21484375,0.4296875t-0.517578125,0.263671875t-0.60546875,0.126953125t-0.498046875,0.01953125q-1.23046875,0-1.875-0.91796875t-0.927734375-2.197265625t-0.302734375-2.626953125t-0.01953125-2.1875q0-1.71875,0.068359375-3.515625t0.166015625-3.5546875t0.2734375-3.4375t0.41015625-3.125q-0.68359375,0.078125-1.337890625,0.17578125t-1.337890625,0.09765625q-0.15625,0-0.419921875-0.01953125t-0.498046875-0.09765625t-0.400390625-0.21484375t-0.166015625-0.390625z M81.18515625,112.24609375q0-1.796875,0.419921875-3.525390625t0.712890625-3.447265625q0.078125-0.44921875,0.615234375-0.556640625t0.908203125-0.107421875q0.64453125,0,1.03515625,0.1953125q0.15625,0.078125,0.29296875,0.17578125t0.13671875,0.25390625q0,1.6796875-0.400390625,3.28125t-0.400390625,3.3984375q0,0.60546875,0.087890625,1.142578125t0.166015625,1.064453125l0.1171875,0.56640625q0,0.15625,0.01953125,0.2734375t0.05859375,0.2734375q0,0.3515625-0.498046875,0.478515625t-0.869140625,0.126953125q-0.56640625,0-1.044921875-0.224609375t-0.751953125-0.771484375l-0.2734375-0.56640625q-0.234375-0.44921875-0.234375-1.005859375t-0.09765625-1.025390625z M82.43515625,100.48828125l0-0.37109375q0-0.91796875,0.458984375-1.640625t1.376953125-0.72265625q0.1171875,0,0.224609375,0.01953125t0.224609375,0.01953125q0.234375,0.0390625,0.615234375,0.185546875t0.380859375,0.458984375l0,0.0390625q-0.078125,0.15625-0.09765625,0.322265625t-0.09765625,0.283203125l0.0390625-0.0390625q-0.234375,0.60546875-0.380859375,0.9765625t-0.322265625,0.595703125t-0.439453125,0.322265625t-0.751953125,0.09765625q-0.078125,0-0.2734375-0.01953125t-0.419921875-0.078125t-0.380859375-0.15625t-0.15625-0.29296875z M89.7138671875,120.64453125l0.41015625-0.48828125q-0.078125-3.28125-0.17578125-6.54296875t-0.09765625-6.484375q0-4.00390625,0.478515625-7.744140625t0.947265625-7.666015625q0.0390625-0.234375,0.224609375-0.380859375t0.458984375-0.244140625t0.556640625-0.13671875t0.517578125-0.0390625q0.3125,0,0.78125,0.1171875t0.9375,0.68359375q0,0.1953125,0.029296875,0.341796875t0.029296875,0.341796875q0,1.484375-0.400390625,3.18359375t-0.537109375,3.26171875q-0.15625,1.9140625-0.21484375,3.7890625t-0.05859375,3.80859375l0.0390625,1.71875q0.390625-0.48828125,1.11328125-1.25t1.5625-1.474609375t1.6796875-1.220703125t1.5234375-0.5078125q1.03515625,0,1.435546875,0.5859375t0.400390625,1.54296875q0,0.87890625-0.380859375,1.8359375t-0.99609375,1.865234375t-1.396484375,1.630859375t-1.54296875,1.07421875q1.03515625,1.2890625,2.119140625,2.4609375t2.373046875,2.20703125l0,0.44921875q-0.0390625,0.1953125-0.244140625,0.29296875t-0.44921875,0.15625t-0.478515625,0.087890625t-0.390625,0.029296875q-0.95703125,0-1.845703125-0.56640625t-1.66015625-1.38671875t-1.455078125-1.73828125t-1.25-1.6015625q0.1171875,2.24609375,0.263671875,4.482421875t0.146484375,4.482421875q0,0.2734375-0.244140625,0.458984375t-0.56640625,0.283203125t-0.654296875,0.13671875t-0.546875,0.0390625q-1.15234375,0-1.630859375-0.419921875t-0.810546875-1.455078125z M93.7177734375,111.4453125q0.48828125,0,1.162109375-0.419921875t1.396484375-1.044921875t1.34765625-1.318359375t1.005859375-1.318359375t0.380859375-1.005859375t-0.52734375-0.341796875q-0.1953125,0-0.80078125,0.56640625t-1.34765625,1.38671875t-1.484375,1.77734375t-1.1328125,1.71875z"/><path fill="#" d="M110.5765625,92.431640625q-0.048828125-0.595703125,0.078125-1.03515625t0.5078125-0.72265625t1.220703125-0.283203125l3.14453125,0q0.64453125,0,1.689453125,0.068359375t2.24609375,0.205078125t2.392578125,0.419921875t2.177734375,0.703125t1.6015625,1.03515625t0.615234375,1.455078125q0,1.19140625-0.693359375,2.236328125t-1.73828125,1.884765625t-2.20703125,1.494140625t-2.080078125,1.181640625q3.6328125,0.80078125,5.68359375,3.3203125t2.05078125,6.2890625q0,1.9921875-0.76171875,3.935546875t-2.080078125,3.505859375t-3.125,2.51953125t-3.876953125,0.95703125q-0.2734375,0-0.615234375-0.05859375t-0.625-0.185546875t-0.48828125-0.361328125t-0.205078125-0.60546875q0-1.71875,1.85546875-1.71875q0.3125,0,0.732421875,0.087890625t0.654296875,0.361328125q1.07421875-0.44921875,1.962890625-1.42578125t1.50390625-2.177734375t0.95703125-2.51953125t0.341796875-2.392578125q0-1.2890625-0.380859375-2.626953125t-1.103515625-2.48046875t-1.77734375-1.923828125t-2.421875-0.9765625q-0.3515625-0.0390625-0.771484375-0.05859375l-0.83984375-0.0390625t-0.8203125-0.1171875t-0.693359375-0.3125q0.15625,3.2421875,0.400390625,6.46484375t0.654296875,6.46484375q0.15625,0.15625,0.21484375,0.458984375t0.09765625,0.64453125t0.0390625,0.654296875l0,0.52734375q0,0.3515625-0.234375,0.576171875t-0.556640625,0.361328125t-0.68359375,0.17578125t-0.634765625,0.0390625q-0.87890625,0-1.34765625-0.234375t-0.6640625-0.68359375t-0.25390625-1.025390625t-0.09765625-1.259765625q-0.52734375-5.44921875-0.76171875-10.78125t-0.234375-10.78125q0-0.64453125-0.048828125-1.240234375z M114.180078125,91.6015625q0,2.40234375,0.15625,4.814453125t0.2734375,4.814453125q0.87890625-0.52734375,2.3046875-1.240234375t2.763671875-1.572265625t2.294921875-1.89453125t0.95703125-2.24609375q0-0.95703125-1.1328125-1.455078125t-2.63671875-0.7421875t-2.939453125-0.302734375t-2.041015625-0.17578125z M131.2439453125,119.6484375q0-0.56640625,0.048828125-1.19140625t0.087890625-1.171875l0.1171875-2.9296875q0.1953125-3.515625,0.478515625-6.9140625t0.478515625-6.875q0.1171875-1.9140625,0.17578125-3.759765625t0.17578125-3.759765625q-0.078125-0.15625-0.078125-0.21484375q0-0.2734375,0.205078125-0.4296875t0.478515625-0.263671875t0.576171875-0.146484375t0.458984375-0.0390625l0.44921875,0q0.60546875,0.078125,0.87890625,0.380859375t0.3515625,0.72265625t0.0390625,0.8984375t-0.0390625,0.888671875q0,2.83203125-0.13671875,5.771484375t-0.3125,5.8984375t-0.322265625,5.91796875t-0.146484375,5.849609375l0,1.3671875q0,0.91796875-0.517578125,1.2109375t-1.435546875,0.29296875q-0.80078125,0-1.40625-0.3515625t-0.60546875-1.15234375z M139.81171875,113.0859375q0-1.11328125,0.283203125-2.294921875t0.8984375-2.12890625t1.552734375-1.54296875t2.265625-0.595703125q0.99609375,0,2.099609375,0.341796875t2.021484375,0.9765625t1.494140625,1.552734375t0.576171875,2.05078125q0,1.3671875-0.498046875,2.59765625t-1.396484375,2.197265625t-2.099609375,1.5234375t-2.607421875,0.556640625q-1.15234375,0-2.01171875-0.419921875t-1.435546875-1.123046875t-0.859375-1.66015625t-0.283203125-2.03125z M142.6828125,113.046875q0,0.3515625,0.107421875,1.03515625t0.322265625,1.337890625t0.556640625,1.1328125t0.830078125,0.439453125q1.03515625-0.1171875,1.708984375-0.673828125t1.09375-1.357421875t0.5859375-1.73828125t0.166015625-1.77734375q0-1.07421875-0.419921875-1.796875t-1.376953125-1.171875q0,0.0390625,0.0390625,0.0390625t0.0390625-0.0390625l-0.48828125-0.1171875q-0.1953125-0.078125-0.478515625-0.17578125t-0.556640625-0.4296875q-0.76171875,0.2734375-1.181640625,0.703125t-0.634765625,1.044921875t-0.263671875,1.474609375t-0.048828125,2.0703125z M154.6099609375,112.03125q0-1.07421875,0.205078125-2.294921875t0.703125-2.236328125t1.376953125-1.6796875t2.24609375-0.6640625q0.91796875,0,1.77734375,0.302734375t1.62109375,0.830078125q0.234375-0.390625,0.7421875-0.478515625t0.8984375-0.087890625q0.15625,0,0.439453125,0.01953125t0.556640625,0.1171875t0.478515625,0.234375t0.244140625,0.390625q0.15625,1.3671875,0.21484375,2.724609375t0.17578125,2.705078125q0.1953125,2.51953125,0.60546875,4.98046875t0.41015625,4.98046875q0,1.19140625-0.107421875,2.578125t-0.56640625,2.568359375t-1.337890625,1.962890625t-2.44140625,0.78125q-1.40625,0-2.158203125-0.498046875t-1.357421875-1.669921875q0.0390625-0.390625,0.498046875-0.517578125t0.791015625-0.126953125q0.3125,0,0.634765625,0.05859375t0.517578125,0.1953125l0.48828125,0.3125q0.72265625-1.484375,0.87890625-3.2421875t0.15625-3.3984375q0-1.3671875-0.13671875-2.705078125t-0.2734375-2.685546875q-1.3671875,2.48046875-4.16015625,2.48046875q-1.2890625,0-2.099609375-0.546875t-1.25-1.38671875t-0.60546875-1.89453125t-0.166015625-2.109375z M157.0123046875,112.20703125q0,0.48828125,0.0390625,1.259765625t0.205078125,1.513671875t0.478515625,1.279296875t0.87890625,0.537109375q1.07421875,0,1.69921875-0.83984375t0.986328125-2.001953125t0.576171875-2.40234375t0.546875-2.041015625q-0.0390625-0.2734375-0.0390625-0.537109375l0-0.537109375q-0.44921875-0.83984375-1.30859375-1.455078125t-1.77734375-0.830078125q-0.1171875-0.01953125-0.21484375-0.01953125q-0.546875,0-0.8984375,0.64453125q-0.44921875,0.78125-0.703125,1.865234375t-0.361328125,2.138671875t-0.107421875,1.42578125z"/></svg>
