<?xml version="1.0" standalone="no"?>
<!DOCTYPE svg PUBLIC "-//W3C//DTD SVG 20010904//EN"
 "http://www.w3.org/TR/2001/REC-SVG-20010904/DTD/svg10.dtd">
<svg version="1.0" xmlns="http://www.w3.org/2000/svg"
 width="282.000000pt" height="104.000000pt" viewBox="0 0 282.000000 104.000000"
 preserveAspectRatio="xMidYMid meet">

<g transform="translate(0.000000,104.000000) scale(0.100000,-0.100000)"
fill="#000000" stroke="none">
<path d="M1110 545 l0 -305 65 0 65 0 -1 88 c0 98 -17 88 -18 -11 l-1 -58 -32
3 -33 3 0 270 0 270 33 3 32 3 0 -133 c0 -211 20 -227 139 -114 57 54 87 76
105 76 14 0 26 -3 26 -6 0 -4 -33 -37 -72 -74 -40 -38 -71 -70 -68 -73 3 -3
52 40 110 94 l104 99 -81 0 -81 0 -75 -80 c-42 -44 -78 -80 -81 -80 -3 0 -6
74 -6 165 l0 165 -65 0 -65 0 0 -305z"/>
<path d="M2020 790 l0 -60 65 0 65 0 0 60 0 60 -65 0 -65 0 0 -60z m110 -10
c0 -27 -3 -30 -30 -30 -18 0 -33 6 -36 15 -11 27 4 45 36 45 27 0 30 -3 30
-30z"/>
<path d="M2290 545 l0 -305 65 0 65 0 -1 88 c0 98 -17 88 -18 -11 l-1 -58 -32
3 -33 3 0 270 0 270 33 3 32 3 0 -133 c0 -211 20 -227 139 -114 57 54 87 76
105 76 14 0 26 -3 26 -6 0 -4 -33 -37 -72 -74 -40 -38 -71 -70 -68 -73 3 -3
52 40 110 94 l104 99 -81 0 -81 0 -75 -80 c-42 -44 -78 -80 -81 -80 -3 0 -6
74 -6 165 l0 165 -65 0 -65 0 0 -305z"/>
<path d="M60 765 l0 -55 95 0 95 0 0 -235 0 -235 70 0 70 0 0 235 0 235 100 0
100 0 0 55 0 55 -265 0 -265 0 0 -55z m505 -10 c0 -18 -8 -21 -80 -25 -44 -3
-86 -9 -92 -13 -10 -6 -13 -62 -13 -220 0 -117 -4 -218 -9 -225 -5 -8 -22 -12
-42 -10 l-34 3 -5 223 c-4 183 -8 224 -20 232 -8 5 -50 10 -92 10 -69 0 -78 2
-78 18 0 10 3 22 7 26 4 3 108 5 232 4 218 -3 226 -4 226 -23z"/>
<path d="M1650 740 l0 -60 -35 0 -35 0 0 -50 0 -50 35 0 35 0 1 -112 c1 -191
21 -218 173 -226 l96 -5 0 52 0 51 -49 0 c-83 0 -81 -3 -81 126 l0 114 70 0
70 0 0 50 0 50 -70 0 -70 0 0 60 0 60 -70 0 -70 0 0 -60z m120 -32 c3 -26 9
-51 14 -55 4 -4 33 -10 64 -13 42 -4 57 -9 57 -20 0 -11 -14 -16 -50 -18 -79
-5 -85 -16 -85 -147 0 -129 8 -144 83 -154 61 -9 58 -35 -5 -39 -64 -4 -125
14 -140 41 -6 12 -13 72 -15 132 -5 144 -7 151 -43 163 -37 14 -38 29 -3 43
35 13 43 26 43 70 0 44 6 51 45 47 28 -3 30 -6 35 -50z"/>
<path d="M675 686 c-5 -3 -31 -7 -57 -11 l-48 -6 0 -50 c0 -27 4 -49 9 -49 5
0 25 7 44 15 20 8 66 15 102 15 57 0 69 -3 90 -25 43 -42 34 -55 -40 -55 -100
0 -165 -18 -202 -55 -29 -29 -33 -40 -33 -85 0 -59 20 -100 59 -122 66 -38
147 -29 206 23 l35 31 0 -36 0 -36 66 0 65 0 -3 173 c-3 163 -4 174 -27 206
-13 18 -40 40 -60 48 -34 14 -184 28 -206 19z m204 -60 c62 -32 66 -45 69
-212 l3 -154 -28 0 c-21 0 -36 9 -50 29 -21 27 -21 30 -5 73 15 42 15 47 -1
72 -16 24 -23 26 -81 26 -55 0 -69 -4 -95 -26 -61 -51 -28 -154 49 -154 41 0
30 -16 -16 -24 -74 -14 -144 34 -144 100 0 83 42 111 180 121 79 5 93 9 106
28 17 27 8 60 -26 90 -19 17 -36 20 -121 19 -66 0 -98 3 -96 10 9 27 206 28
256 2z m-39 -200 c0 -26 -18 -64 -41 -85 -44 -41 -129 -15 -129 39 0 40 35 60
105 60 50 0 65 -3 65 -14z"/>
<path d="M2020 460 l0 -220 65 0 65 0 0 220 0 220 -65 0 -65 0 0 -220z m108
-13 l2 -188 -32 3 -33 3 -3 175 c-1 96 0 180 3 188 3 8 16 12 32 10 l28 -3 3
-188z"/>
<path d="M1350 454 c0 -9 36 -53 80 -98 44 -45 80 -85 80 -89 0 -4 -14 -7 -31
-7 -27 0 -45 14 -113 85 -47 48 -90 85 -101 85 -21 0 -14 -9 100 -127 l59 -63
80 0 79 0 -104 108 c-116 120 -129 131 -129 106z"/>
<path d="M2530 454 c0 -9 36 -53 80 -98 44 -45 80 -85 80 -89 0 -4 -14 -7 -31
-7 -27 0 -45 14 -113 85 -47 48 -90 85 -101 85 -21 0 -14 -9 100 -127 l59 -63
80 0 79 0 -104 108 c-116 120 -129 131 -129 106z"/>
</g>
</svg>
